Coordinates
version=1
nRows=10
nColumns=34
inDegrees=yes

Units are S.I. units (second, meters, Newtons, ...)
If the header above contains a line with 'inDegrees', this indicates whether rotational values are in degrees (yes) or radians (no).

endheader
time	pelvis_tilt	pelvis_list	pelvis_rotation	pelvis_tx	pelvis_ty	pelvis_tz	hip_flexion_r	hip_adduction_r	hip_rotation_r	knee_angle_r	ankle_angle_r	subtalar_angle_r	mtp_angle_r	hip_flexion_l	hip_adduction_l	hip_rotation_l	knee_angle_l	ankle_angle_l	subtalar_angle_l	mtp_angle_l	lumbar_extension	lumbar_bending	lumbar_rotation	arm_flex_r	arm_add_r	arm_rot_r	elbow_flex_r	pro_sup_r	arm_flex_l	arm_add_l	arm_rot_l	elbow_flex_l	pro_sup_l
      0.00000000	     -0.82319816	     -5.60892460	      4.45048077	    -10.86754252	      0.86711869	      0.77752787	      2.94794989	      4.20641328	     -4.53049171	      8.89435685	      9.36215260	    -16.06805493	      0.00000000	      8.29582788	     -6.32360350	     -1.50413975	     21.07558062	      3.95883248	    -21.48533656	      0.00000000	      1.04791060	     -1.90789667	     33.15072065	   -292.48053029	   -127.87977170	    -27.27227079	    102.69475464	     60.80315100	   -245.85491917	     12.48143772	     -6.30067783	     61.36748274	    119.74817918
      0.01666670	      4.49927240	     -3.86721308	      5.39420879	    -10.87077084	      0.87888080	      0.77696326	     -3.19508428	      3.60115209	     -5.16547231	      8.17990672	      9.15453312	    -17.19846482	      0.00000000	      2.84975366	     -4.45419730	     -0.85356362	     21.45248649	      1.81096297	    -26.13300037	      0.00000000	     -7.09126427	     -3.60931513	     36.84932827	   -287.77137600	   -133.19721146	    -28.22903523	    104.21810274	     61.39845693	   -247.48338950	     16.13127916	     -9.34528972	     66.99593906	    119.74817918
      0.03333330	      4.47162406	     -2.40886135	      4.72715817	    -10.87055942	      0.88238803	      0.77870836	     -3.54185423	      2.24078201	     -6.88814882	      7.65788088	      7.61252112	    -16.93494463	      0.00000000	      2.53571310	     -2.91973597	     -2.36221449	     21.15406753	      1.27729789	    -26.88005313	      0.00000000	     -7.61212419	     -5.38028450	     39.06231395	   -284.45954148	   -134.87023184	    -28.90872922	    106.28012264	     61.62736997	   -249.25042377	     17.42320904	     -9.28314566	     69.84069123	    119.74817918
      0.05000000	      5.55819540	     -2.09122176	      5.00303187	    -10.86983259	      0.88566679	      0.77854332	     -5.12168292	      1.87884391	     -7.42341560	      7.20274805	      5.77875546	    -17.34240735	      0.00000000	      0.81614149	     -2.54248695	     -2.17052744	     19.87478255	     -2.66501166	    -31.48650074	      0.00000000	    -10.09536228	     -5.86977852	     41.69666305	   -281.08700368	   -142.50889784	    -25.36467280	    104.39782730	     62.08176521	   -249.76525224	     21.03022902	    -13.22153232	     73.96973335	    119.74817918
      0.06666670	      7.26655634	     -1.82224363	      4.96672573	    -10.86504113	      0.88766319	      0.77805748	     -7.43573767	      1.78483931	     -6.79966317	      6.86704295	      3.71334184	    -18.69772396	      0.00000000	     -1.76569058	     -2.36003407	     -2.45783284	     18.67663101	     -5.12774735	    -33.46641982	      0.00000000	    -12.50402630	     -5.36332099	     43.58271638	   -281.77673350	   -147.53617902	    -25.50690462	    103.15243370	     61.43644636	   -250.15232646	     21.46592691	    -13.97616527	     74.71559647	    119.74817918
      0.08333330	      7.29278624	     -1.80155481	      5.10445256	    -10.85591645	      0.88552968	      0.77667727	     -7.77124455	      1.76257252	     -6.75324650	      7.15549826	      3.63848493	    -18.66250159	      0.00000000	     -2.09253529	     -2.39111320	     -2.48186094	     18.83853444	     -5.15498710	    -33.46017173	      0.00000000	    -11.96640729	     -5.32979009	     43.47654082	   -281.74989858	   -147.68133561	    -25.55702851	    103.13667404	     61.43042611	   -250.09328510	     21.45095001	    -13.97567631	     74.73527876	    119.74817918
      0.10000000	      9.50710191	     -1.53329997	      5.82987318	    -10.84833797	      0.88976358	      0.77463395	    -11.44855167	      1.90929318	     -6.54212751	      5.70712754	      1.64601322	    -19.31942681	      0.00000000	     -5.59882670	     -2.39240292	     -2.13055512	     17.55163371	     -6.28016131	    -33.24230702	      0.00000000	    -13.29515088	     -4.60135023	     44.12972579	   -282.50242382	   -150.56010214	    -22.59335414	    103.33079821	     61.13999533	   -250.61653460	     20.99742405	    -11.60172385	     70.25079053	    119.74817918
      0.11666670	      9.48576540	     -1.48055741	      5.94587256	    -10.84650870	      0.88884084	      0.77473660	    -11.69707380	      1.90545286	     -6.53601010	      5.83754109	      1.61388303	    -19.32084301	      0.00000000	     -5.92948773	     -2.39919237	     -2.16505585	     17.71671640	     -6.30370649	    -33.24313947	      0.00000000	    -12.85697627	     -4.60142186	     44.05370147	   -282.43870231	   -150.66897570	    -22.64771269	    103.28635840	     61.13203409	   -250.60995599	     20.96606068	    -11.59465356	     70.24464303	    119.74817918
      0.13333330	     11.05429959	     -1.03827482	      6.60833859	    -10.84714081	      0.88955007	      0.77500255	    -14.45329474	      1.91618627	     -6.91037150	      4.25820749	      0.00667972	    -20.45023109	      0.00000000	     -8.52576066	     -2.18631436	     -1.69236214	     16.37560093	     -7.13666492	    -33.55339108	      0.00000000	    -13.99913736	     -4.73007769	     44.59099623	   -282.29535866	   -152.00569251	    -21.64996387	    102.26343323	     60.69075475	   -249.99247692	     20.90011350	     -8.71467809	     65.22447754	    119.74817918
      0.15000000	     11.09533335	     -0.89514484	      6.82226483	    -10.84816709	      0.89034095	      0.77556220	    -14.61238125	      1.91311826	     -6.70175470	      4.04588105	      0.53546062	    -21.00591942	      0.00000000	     -8.84863782	     -2.06956668	     -1.42005924	     15.85605026	     -7.42202038	    -33.42367011	      0.00000000	    -14.14052080	     -4.90668747	     44.52010024	   -282.01194489	   -152.14024435	    -21.87651535	    102.23471699	     60.58054009	   -249.76389211	     20.94791552	     -8.59030931	     65.08534307	    119.74817918
